<mxfile host="app.diagrams.net" modified="2023-07-11T20:08:55.858Z" agent="Mozilla/5.0 (X11; Linux x86_64; rv:109.0) Gecko/20100101 Firefox/115.0" etag="IIicDsGFGS1CUda3T3vt" version="21.6.1" type="github">
  <diagram name="Pagina-1" id="_AoRa2cJ0ejXUdXcMOnp">
    <mxGraphModel dx="880" dy="485" grid="1" gridSize="10" guides="1" tooltips="1" connect="1" arrows="1" fold="1" page="1" pageScale="1" pageWidth="827" pageHeight="1169" math="0" shadow="0">
      <root>
        <mxCell id="0" />
        <mxCell id="1" parent="0" />
        <mxCell id="h3B7MR_wZLT5G75nNYw9-13" style="edgeStyle=orthogonalEdgeStyle;rounded=0;orthogonalLoop=1;jettySize=auto;html=1;" edge="1" parent="1" source="h3B7MR_wZLT5G75nNYw9-1">
          <mxGeometry relative="1" as="geometry">
            <mxPoint x="370" y="110" as="targetPoint" />
          </mxGeometry>
        </mxCell>
        <mxCell id="h3B7MR_wZLT5G75nNYw9-1" value="wait transfer" style="rounded=0;whiteSpace=wrap;html=1;" vertex="1" parent="1">
          <mxGeometry x="170" y="80" width="120" height="60" as="geometry" />
        </mxCell>
        <mxCell id="h3B7MR_wZLT5G75nNYw9-12" style="edgeStyle=orthogonalEdgeStyle;rounded=0;orthogonalLoop=1;jettySize=auto;html=1;entryX=0.5;entryY=0;entryDx=0;entryDy=0;" edge="1" parent="1" source="h3B7MR_wZLT5G75nNYw9-3" target="h3B7MR_wZLT5G75nNYw9-1">
          <mxGeometry relative="1" as="geometry">
            <Array as="points">
              <mxPoint x="414" y="30" />
              <mxPoint x="230" y="30" />
            </Array>
          </mxGeometry>
        </mxCell>
        <mxCell id="h3B7MR_wZLT5G75nNYw9-14" value="" style="edgeStyle=orthogonalEdgeStyle;rounded=0;orthogonalLoop=1;jettySize=auto;html=1;" edge="1" parent="1" source="h3B7MR_wZLT5G75nNYw9-3" target="h3B7MR_wZLT5G75nNYw9-9">
          <mxGeometry relative="1" as="geometry" />
        </mxCell>
        <mxCell id="h3B7MR_wZLT5G75nNYw9-3" value="enable" style="rhombus;whiteSpace=wrap;html=1;" vertex="1" parent="1">
          <mxGeometry x="374" y="70" width="80" height="80" as="geometry" />
        </mxCell>
        <mxCell id="h3B7MR_wZLT5G75nNYw9-11" style="edgeStyle=orthogonalEdgeStyle;rounded=0;orthogonalLoop=1;jettySize=auto;html=1;entryX=0;entryY=0.5;entryDx=0;entryDy=0;" edge="1" parent="1" source="h3B7MR_wZLT5G75nNYw9-9" target="h3B7MR_wZLT5G75nNYw9-10">
          <mxGeometry relative="1" as="geometry">
            <Array as="points" />
          </mxGeometry>
        </mxCell>
        <mxCell id="h3B7MR_wZLT5G75nNYw9-19" style="edgeStyle=orthogonalEdgeStyle;rounded=0;orthogonalLoop=1;jettySize=auto;html=1;entryX=0.5;entryY=0;entryDx=0;entryDy=0;" edge="1" parent="1" source="h3B7MR_wZLT5G75nNYw9-9" target="h3B7MR_wZLT5G75nNYw9-18">
          <mxGeometry relative="1" as="geometry" />
        </mxCell>
        <mxCell id="h3B7MR_wZLT5G75nNYw9-9" value="page loaded" style="rhombus;whiteSpace=wrap;html=1;" vertex="1" parent="1">
          <mxGeometry x="374" y="200" width="80" height="80" as="geometry" />
        </mxCell>
        <mxCell id="h3B7MR_wZLT5G75nNYw9-16" value="" style="edgeStyle=orthogonalEdgeStyle;rounded=0;orthogonalLoop=1;jettySize=auto;html=1;" edge="1" parent="1" source="h3B7MR_wZLT5G75nNYw9-10">
          <mxGeometry relative="1" as="geometry">
            <mxPoint x="600" y="320" as="targetPoint" />
          </mxGeometry>
        </mxCell>
        <mxCell id="h3B7MR_wZLT5G75nNYw9-10" value="&lt;div&gt;memory writeback &lt;br&gt;&lt;/div&gt;&lt;div&gt;transfer&lt;br&gt;&lt;/div&gt;" style="rounded=0;whiteSpace=wrap;html=1;" vertex="1" parent="1">
          <mxGeometry x="540" y="210" width="120" height="60" as="geometry" />
        </mxCell>
        <mxCell id="h3B7MR_wZLT5G75nNYw9-37" value="" style="edgeStyle=orthogonalEdgeStyle;rounded=0;orthogonalLoop=1;jettySize=auto;html=1;" edge="1" parent="1" source="h3B7MR_wZLT5G75nNYw9-18" target="h3B7MR_wZLT5G75nNYw9-30">
          <mxGeometry relative="1" as="geometry" />
        </mxCell>
        <mxCell id="h3B7MR_wZLT5G75nNYw9-39" style="edgeStyle=orthogonalEdgeStyle;rounded=0;orthogonalLoop=1;jettySize=auto;html=1;entryX=0.5;entryY=0;entryDx=0;entryDy=0;" edge="1" parent="1" source="h3B7MR_wZLT5G75nNYw9-18" target="h3B7MR_wZLT5G75nNYw9-38">
          <mxGeometry relative="1" as="geometry" />
        </mxCell>
        <mxCell id="h3B7MR_wZLT5G75nNYw9-18" value="&lt;div&gt;write&lt;/div&gt;&lt;div&gt;access&lt;br&gt;&lt;/div&gt;" style="rhombus;whiteSpace=wrap;html=1;" vertex="1" parent="1">
          <mxGeometry x="374" y="370" width="80" height="80" as="geometry" />
        </mxCell>
        <mxCell id="h3B7MR_wZLT5G75nNYw9-24" style="edgeStyle=orthogonalEdgeStyle;rounded=0;orthogonalLoop=1;jettySize=auto;html=1;entryX=1;entryY=0.5;entryDx=0;entryDy=0;" edge="1" parent="1" source="h3B7MR_wZLT5G75nNYw9-23" target="h3B7MR_wZLT5G75nNYw9-10">
          <mxGeometry relative="1" as="geometry">
            <Array as="points">
              <mxPoint x="680" y="360" />
              <mxPoint x="680" y="240" />
            </Array>
          </mxGeometry>
        </mxCell>
        <mxCell id="h3B7MR_wZLT5G75nNYw9-26" value="" style="edgeStyle=orthogonalEdgeStyle;rounded=0;orthogonalLoop=1;jettySize=auto;html=1;" edge="1" parent="1" source="h3B7MR_wZLT5G75nNYw9-23" target="h3B7MR_wZLT5G75nNYw9-25">
          <mxGeometry relative="1" as="geometry" />
        </mxCell>
        <mxCell id="h3B7MR_wZLT5G75nNYw9-23" value="done" style="rhombus;whiteSpace=wrap;html=1;" vertex="1" parent="1">
          <mxGeometry x="560" y="320" width="80" height="80" as="geometry" />
        </mxCell>
        <mxCell id="h3B7MR_wZLT5G75nNYw9-28" value="" style="edgeStyle=orthogonalEdgeStyle;rounded=0;orthogonalLoop=1;jettySize=auto;html=1;" edge="1" parent="1" source="h3B7MR_wZLT5G75nNYw9-25" target="h3B7MR_wZLT5G75nNYw9-27">
          <mxGeometry relative="1" as="geometry" />
        </mxCell>
        <mxCell id="h3B7MR_wZLT5G75nNYw9-25" value="&lt;div&gt;memory read&lt;/div&gt;&lt;div&gt;transfer&lt;br&gt;&lt;/div&gt;" style="rounded=0;whiteSpace=wrap;html=1;" vertex="1" parent="1">
          <mxGeometry x="540" y="450" width="120" height="60" as="geometry" />
        </mxCell>
        <mxCell id="h3B7MR_wZLT5G75nNYw9-29" style="edgeStyle=orthogonalEdgeStyle;rounded=0;orthogonalLoop=1;jettySize=auto;html=1;entryX=1;entryY=0.5;entryDx=0;entryDy=0;" edge="1" parent="1" source="h3B7MR_wZLT5G75nNYw9-27" target="h3B7MR_wZLT5G75nNYw9-25">
          <mxGeometry relative="1" as="geometry">
            <Array as="points">
              <mxPoint x="680" y="600" />
              <mxPoint x="680" y="480" />
            </Array>
          </mxGeometry>
        </mxCell>
        <mxCell id="h3B7MR_wZLT5G75nNYw9-27" value="done" style="rhombus;whiteSpace=wrap;html=1;" vertex="1" parent="1">
          <mxGeometry x="560" y="560" width="80" height="80" as="geometry" />
        </mxCell>
        <mxCell id="h3B7MR_wZLT5G75nNYw9-41" value="" style="edgeStyle=orthogonalEdgeStyle;rounded=0;orthogonalLoop=1;jettySize=auto;html=1;" edge="1" parent="1" source="h3B7MR_wZLT5G75nNYw9-30" target="h3B7MR_wZLT5G75nNYw9-40">
          <mxGeometry relative="1" as="geometry" />
        </mxCell>
        <mxCell id="h3B7MR_wZLT5G75nNYw9-30" value="write cache data" style="rounded=0;whiteSpace=wrap;html=1;" vertex="1" parent="1">
          <mxGeometry x="354" y="510" width="120" height="60" as="geometry" />
        </mxCell>
        <mxCell id="h3B7MR_wZLT5G75nNYw9-36" value="" style="endArrow=classic;html=1;rounded=0;exitX=0;exitY=0.5;exitDx=0;exitDy=0;" edge="1" parent="1" source="h3B7MR_wZLT5G75nNYw9-27">
          <mxGeometry width="50" height="50" relative="1" as="geometry">
            <mxPoint x="470" y="530" as="sourcePoint" />
            <mxPoint x="420" y="340" as="targetPoint" />
            <Array as="points">
              <mxPoint x="500" y="600" />
              <mxPoint x="500" y="340" />
            </Array>
          </mxGeometry>
        </mxCell>
        <mxCell id="h3B7MR_wZLT5G75nNYw9-48" value="" style="edgeStyle=orthogonalEdgeStyle;rounded=0;orthogonalLoop=1;jettySize=auto;html=1;" edge="1" parent="1" source="h3B7MR_wZLT5G75nNYw9-38" target="h3B7MR_wZLT5G75nNYw9-47">
          <mxGeometry relative="1" as="geometry" />
        </mxCell>
        <mxCell id="h3B7MR_wZLT5G75nNYw9-38" value="read cache data" style="rounded=0;whiteSpace=wrap;html=1;" vertex="1" parent="1">
          <mxGeometry x="140" y="510" width="120" height="60" as="geometry" />
        </mxCell>
        <mxCell id="h3B7MR_wZLT5G75nNYw9-46" value="" style="edgeStyle=orthogonalEdgeStyle;rounded=0;orthogonalLoop=1;jettySize=auto;html=1;" edge="1" parent="1" source="h3B7MR_wZLT5G75nNYw9-40" target="h3B7MR_wZLT5G75nNYw9-42">
          <mxGeometry relative="1" as="geometry" />
        </mxCell>
        <mxCell id="h3B7MR_wZLT5G75nNYw9-40" value="&lt;div&gt;memory writeback &lt;br&gt;&lt;/div&gt;&lt;div&gt;transfer&lt;br&gt;&lt;/div&gt;" style="rounded=0;whiteSpace=wrap;html=1;" vertex="1" parent="1">
          <mxGeometry x="354" y="620" width="120" height="60" as="geometry" />
        </mxCell>
        <mxCell id="h3B7MR_wZLT5G75nNYw9-45" style="edgeStyle=orthogonalEdgeStyle;rounded=0;orthogonalLoop=1;jettySize=auto;html=1;entryX=1;entryY=0.5;entryDx=0;entryDy=0;" edge="1" parent="1" source="h3B7MR_wZLT5G75nNYw9-42" target="h3B7MR_wZLT5G75nNYw9-40">
          <mxGeometry relative="1" as="geometry">
            <Array as="points">
              <mxPoint x="494" y="770" />
              <mxPoint x="494" y="650" />
            </Array>
          </mxGeometry>
        </mxCell>
        <mxCell id="h3B7MR_wZLT5G75nNYw9-49" style="edgeStyle=orthogonalEdgeStyle;rounded=0;orthogonalLoop=1;jettySize=auto;html=1;" edge="1" parent="1" source="h3B7MR_wZLT5G75nNYw9-42" target="h3B7MR_wZLT5G75nNYw9-1">
          <mxGeometry relative="1" as="geometry">
            <Array as="points">
              <mxPoint x="80" y="770" />
              <mxPoint x="80" y="110" />
            </Array>
          </mxGeometry>
        </mxCell>
        <mxCell id="h3B7MR_wZLT5G75nNYw9-42" value="done" style="rhombus;whiteSpace=wrap;html=1;" vertex="1" parent="1">
          <mxGeometry x="374" y="730" width="80" height="80" as="geometry" />
        </mxCell>
        <mxCell id="h3B7MR_wZLT5G75nNYw9-50" style="edgeStyle=orthogonalEdgeStyle;rounded=0;orthogonalLoop=1;jettySize=auto;html=1;" edge="1" parent="1" source="h3B7MR_wZLT5G75nNYw9-47">
          <mxGeometry relative="1" as="geometry">
            <mxPoint x="200" y="770" as="targetPoint" />
          </mxGeometry>
        </mxCell>
        <mxCell id="h3B7MR_wZLT5G75nNYw9-51" style="edgeStyle=orthogonalEdgeStyle;rounded=0;orthogonalLoop=1;jettySize=auto;html=1;entryX=1;entryY=0.5;entryDx=0;entryDy=0;" edge="1" parent="1" source="h3B7MR_wZLT5G75nNYw9-47" target="h3B7MR_wZLT5G75nNYw9-38">
          <mxGeometry relative="1" as="geometry">
            <Array as="points">
              <mxPoint x="280" y="650" />
              <mxPoint x="280" y="540" />
            </Array>
          </mxGeometry>
        </mxCell>
        <mxCell id="h3B7MR_wZLT5G75nNYw9-47" value="done" style="rhombus;whiteSpace=wrap;html=1;" vertex="1" parent="1">
          <mxGeometry x="160" y="610" width="80" height="80" as="geometry" />
        </mxCell>
        <mxCell id="h3B7MR_wZLT5G75nNYw9-52" value="no" style="text;html=1;strokeColor=none;fillColor=none;align=center;verticalAlign=middle;whiteSpace=wrap;rounded=0;" vertex="1" parent="1">
          <mxGeometry x="220" y="620" width="60" height="30" as="geometry" />
        </mxCell>
        <mxCell id="h3B7MR_wZLT5G75nNYw9-53" value="yes" style="text;html=1;strokeColor=none;fillColor=none;align=center;verticalAlign=middle;whiteSpace=wrap;rounded=0;" vertex="1" parent="1">
          <mxGeometry x="190" y="690" width="60" height="30" as="geometry" />
        </mxCell>
        <mxCell id="h3B7MR_wZLT5G75nNYw9-54" value="no" style="text;html=1;strokeColor=none;fillColor=none;align=center;verticalAlign=middle;whiteSpace=wrap;rounded=0;" vertex="1" parent="1">
          <mxGeometry x="430" y="730" width="60" height="30" as="geometry" />
        </mxCell>
        <mxCell id="h3B7MR_wZLT5G75nNYw9-55" value="yes" style="text;html=1;strokeColor=none;fillColor=none;align=center;verticalAlign=middle;whiteSpace=wrap;rounded=0;" vertex="1" parent="1">
          <mxGeometry x="310" y="740" width="64" height="30" as="geometry" />
        </mxCell>
        <mxCell id="h3B7MR_wZLT5G75nNYw9-56" value="no" style="text;html=1;strokeColor=none;fillColor=none;align=center;verticalAlign=middle;whiteSpace=wrap;rounded=0;" vertex="1" parent="1">
          <mxGeometry x="620" y="570" width="60" height="30" as="geometry" />
        </mxCell>
        <mxCell id="h3B7MR_wZLT5G75nNYw9-57" value="yes" style="text;html=1;strokeColor=none;fillColor=none;align=center;verticalAlign=middle;whiteSpace=wrap;rounded=0;" vertex="1" parent="1">
          <mxGeometry x="510" y="570" width="60" height="30" as="geometry" />
        </mxCell>
        <mxCell id="h3B7MR_wZLT5G75nNYw9-58" value="no" style="text;html=1;strokeColor=none;fillColor=none;align=center;verticalAlign=middle;whiteSpace=wrap;rounded=0;" vertex="1" parent="1">
          <mxGeometry x="620" y="330" width="60" height="30" as="geometry" />
        </mxCell>
        <mxCell id="h3B7MR_wZLT5G75nNYw9-59" value="yes" style="text;html=1;strokeColor=none;fillColor=none;align=center;verticalAlign=middle;whiteSpace=wrap;rounded=0;" vertex="1" parent="1">
          <mxGeometry x="600" y="395" width="60" height="30" as="geometry" />
        </mxCell>
        <mxCell id="h3B7MR_wZLT5G75nNYw9-60" value="1" style="text;html=1;strokeColor=none;fillColor=none;align=center;verticalAlign=middle;whiteSpace=wrap;rounded=0;" vertex="1" parent="1">
          <mxGeometry x="360" y="450" width="60" height="30" as="geometry" />
        </mxCell>
        <mxCell id="h3B7MR_wZLT5G75nNYw9-61" value="0" style="text;html=1;strokeColor=none;fillColor=none;align=center;verticalAlign=middle;whiteSpace=wrap;rounded=0;" vertex="1" parent="1">
          <mxGeometry x="320" y="370" width="60" height="30" as="geometry" />
        </mxCell>
        <mxCell id="h3B7MR_wZLT5G75nNYw9-62" value="no" style="text;html=1;strokeColor=none;fillColor=none;align=center;verticalAlign=middle;whiteSpace=wrap;rounded=0;" vertex="1" parent="1">
          <mxGeometry x="450" y="210" width="60" height="30" as="geometry" />
        </mxCell>
        <mxCell id="h3B7MR_wZLT5G75nNYw9-63" value="yes" style="text;html=1;strokeColor=none;fillColor=none;align=center;verticalAlign=middle;whiteSpace=wrap;rounded=0;" vertex="1" parent="1">
          <mxGeometry x="360" y="280" width="60" height="30" as="geometry" />
        </mxCell>
        <mxCell id="h3B7MR_wZLT5G75nNYw9-64" value="1" style="text;html=1;strokeColor=none;fillColor=none;align=center;verticalAlign=middle;whiteSpace=wrap;rounded=0;" vertex="1" parent="1">
          <mxGeometry x="410" y="140" width="60" height="30" as="geometry" />
        </mxCell>
        <mxCell id="h3B7MR_wZLT5G75nNYw9-65" value="0" style="text;html=1;strokeColor=none;fillColor=none;align=center;verticalAlign=middle;whiteSpace=wrap;rounded=0;" vertex="1" parent="1">
          <mxGeometry x="400" y="50" width="60" height="30" as="geometry" />
        </mxCell>
      </root>
    </mxGraphModel>
  </diagram>
</mxfile>
